<?xml version="1.0" standalone="no"?><!DOCTYPE svg PUBLIC "-//W3C//DTD SVG 1.1//EN" "http://www.w3.org/Graphics/SVG/1.1/DTD/svg11.dtd"><svg t="1734684792415" class="icon" viewBox="0 0 1538 1024" version="1.1" xmlns="http://www.w3.org/2000/svg" p-id="2105" xmlns:xlink="http://www.w3.org/1999/xlink" width="300.390625" height="200"><path d="M395.776 143.36c118.784 78.848 217.088 143.36 218.624 143.36 1.536 0 2.56-64.512 2.56-143.36V0H179.2l216.576 143.36z" p-id="2106"></path><path d="M683.52 212.48V424.96H2.56v174.08h680.96v424.96h174.08v-424.96h680.96V424.96H857.6V0h-174.08v212.48z" p-id="2107"></path><path d="M924.16 143.36c0 78.848 1.024 143.36 2.56 143.36 3.072 0 417.28-275.456 424.96-282.112 2.56-2.56-87.04-4.608-211.456-4.608H924.16v143.36zM1172.48 163.84c-226.304 150.528-245.76 164.864-247.296 179.2l-1.536 15.36h74.752L1267.2 179.2l268.8-179.2h-117.76l-245.76 163.84zM2.56 42.496v37.888l208.896 138.752L419.84 358.4h117.76L279.04 186.368C136.704 92.16 16.384 12.288 11.776 9.728 3.584 5.12 2.56 8.192 2.56 42.496zM2.56 240.64v117.76h177.664c102.4 0 175.616-2.048 173.056-4.608C345.6 347.136 8.192 122.88 5.12 122.88 3.584 122.88 2.56 175.616 2.56 240.64zM1360.384 237.568C1267.2 300.544 1188.864 353.28 1186.816 354.816c-1.536 2.048 76.8 3.584 174.08 3.584H1538.56V240.64c0-65.024-1.536-117.76-3.584-117.248-2.56 0-80.896 51.712-174.592 114.176zM2.56 783.36c0 64.512 1.024 117.76 2.56 117.76 3.072 0 340.48-224.256 347.648-230.912 3.072-2.56-70.144-4.608-172.544-4.608H2.56v117.76zM268.8 845.312L0 1024h116.736l249.856-164.864c228.864-151.04 250.368-166.4 250.368-179.712V665.6l-39.424 0.512-39.936 0.512L268.8 845.312zM1014.272 670.208c4.096 4.096 501.76 335.872 518.144 345.6 4.608 2.56 6.144-5.632 6.144-34.816V942.08l-207.36-138.24-207.36-138.24h-57.344c-33.28 0-55.296 2.048-52.224 4.608zM1188.352 670.208c7.168 6.656 344.576 230.912 347.648 230.912 1.536 0 2.56-53.248 2.56-117.76v-117.76h-177.664c-102.4 0-175.616 2.048-172.544 4.608zM400.384 877.568c-114.688 76.8-209.92 141.312-211.968 142.848-1.536 2.048 93.696 3.584 212.48 3.584H616.96v-143.36c0-78.848-1.536-143.36-3.584-142.848-2.56 0-97.792 62.976-212.992 139.776zM924.16 880.64v143.36h216.064c124.416 0 214.016-2.048 211.456-4.608-7.68-6.656-421.888-282.112-424.96-282.112-1.536 0-2.56 64.512-2.56 143.36z" p-id="2108"></path></svg>