<?xml version="1.0" standalone="no"?><!DOCTYPE svg PUBLIC "-//W3C//DTD SVG 1.1//EN" "http://www.w3.org/Graphics/SVG/1.1/DTD/svg11.dtd"><svg t="1734684833925" class="icon" viewBox="0 0 1418 1024" version="1.1" xmlns="http://www.w3.org/2000/svg" p-id="2578" xmlns:xlink="http://www.w3.org/1999/xlink" width="276.953125" height="200"><path d="M0 512v512h1413.12V0H0v512z m441.344-417.792c-1.536 15.36 0 17.92 12.8 22.528l14.336 5.12-16.384 6.144c-14.336 5.12-16.896 8.704-16.896 22.016l-0.512 16.384-7.68-14.848c-7.168-12.288-10.24-13.824-23.552-11.264l-15.36 3.072 8.192-12.8c6.656-10.24 7.168-15.36 2.56-23.552-6.656-13.312-3.072-17.408 9.728-10.24 7.68 4.096 12.288 2.56 21.504-7.168 6.656-7.168 12.288-12.8 12.8-12.8 0 0-0.512 7.68-1.536 17.408z m-220.16 68.096l12.8 45.056 48.64 2.56 49.152 2.56-37.888 27.648c-20.992 15.36-37.888 30.72-37.888 33.792 0 3.072 5.632 23.04 12.8 43.52s11.776 38.4 10.24 39.936c-1.024 1.024-18.432-9.728-38.4-24.576l-35.84-26.624-35.84 26.624c-19.968 14.848-37.376 25.6-38.912 24.576-1.024-1.536 3.584-21.504 10.752-45.056 7.68-23.04 12.8-42.496 11.776-43.008-1.024-0.512-18.432-14.336-38.912-30.208l-37.376-28.672 49.664-1.536 49.664-1.536 13.312-45.056c6.656-24.576 14.336-44.544 15.872-44.544 2.048 0 9.216 19.968 16.384 44.544z m310.784 19.968L547.84 174.08l-8.704 17.92c-8.192 16.896-8.192 18.432 1.536 28.672l9.728 10.752-15.872-3.072c-13.312-3.072-16.384-1.536-22.528 10.752l-7.168 14.336-2.048-16.896c-1.536-13.312-4.096-16.384-13.824-16.384-17.408 0-19.968-7.68-4.608-14.848 11.264-5.12 12.8-7.68 9.728-22.528l-3.584-16.384 12.8 11.776c12.288 11.776 13.312 11.776 28.672 4.096z m-13.824 132.608c1.024 7.168 6.144 10.752 18.432 11.776l16.896 1.536-12.8 10.24c-10.752 8.192-12.288 12.288-8.192 19.968 8.704 16.384 5.632 20.992-7.68 12.288-11.776-7.68-13.824-7.68-25.6 0-13.312 8.704-14.848 7.168-7.68-9.728 3.072-7.68 0.512-12.8-9.728-21.504l-13.312-11.264 16.384-0.512c13.824 0 16.384-2.048 19.456-15.872 3.584-16.384 10.24-14.848 13.824 3.072z m-76.8 91.136c-1.536 14.336 0 17.408 12.8 22.016l14.336 5.632-13.824 5.632c-8.704 3.584-15.36 11.264-17.408 19.456l-3.584 13.824L424.96 460.8c-7.168-9.216-11.776-10.752-23.552-8.192-13.824 3.584-14.336 3.584-5.632-6.144 10.24-11.264 11.264-22.016 2.56-30.72-8.704-8.704-1.536-13.312 10.24-6.656 7.68 4.096 12.288 2.56 21.504-7.168 6.656-7.168 12.288-12.8 12.8-12.8 0 0-0.512 7.68-1.536 16.896z" p-id="2579"></path></svg>