<?xml version="1.0" standalone="no"?><!DOCTYPE svg PUBLIC "-//W3C//DTD SVG 1.1//EN" "http://www.w3.org/Graphics/SVG/1.1/DTD/svg11.dtd"><svg t="1734684820590" class="icon" viewBox="0 0 1024 1024" version="1.1" xmlns="http://www.w3.org/2000/svg" p-id="2421" xmlns:xlink="http://www.w3.org/1999/xlink" width="200" height="200"><path d="M716.8 716.8a51.2 51.2 0 0 1-51.2-51.2v-102.4a48.420571 48.420571 0 0 0-51.2-51.2h-256a51.2 51.2 0 1 1 0-102.4h51.2a48.310857 48.310857 0 0 0 51.2-51.2V320A64 64 0 0 1 524.8 256h38.4a102.692571 102.692571 0 0 0 102.4-102.4v-20.48a414.72 414.72 0 0 1 256 378.88 404.736 404.736 0 0 1-107.52 276.48 104.667429 104.667429 0 0 0-97.28-71.68z m-256 199.68A413.257143 413.257143 0 0 1 102.4 512a564.955429 564.955429 0 0 1 10.24-92.16l236.434286 236.361143a32 32 0 0 1 9.398857 22.637714V716.8a94.683429 94.683429 0 0 0 77.238857 98.998857 32 32 0 0 1 25.088 31.232v69.485714zM0 512A512 512 0 1 0 512 0 513.499429 513.499429 0 0 0 0 512z" p-id="2422"></path></svg>